%TF.GenerationSoftware,KiCad,Pcbnew,(7.0.0)*%
%TF.CreationDate,2023-02-17T23:27:23-05:00*%
%TF.ProjectId,RgbButton,52676242-7574-4746-9f6e-2e6b69636164,rev?*%
%TF.SameCoordinates,Original*%
%TF.FileFunction,Drillmap*%
%TF.FilePolarity,Positive*%
%FSLAX45Y45*%
G04 Gerber Fmt 4.5, Leading zero omitted, Abs format (unit mm)*
G04 Created by KiCad (PCBNEW (7.0.0)) date 2023-02-17 23:27:23*
%MOMM*%
%LPD*%
G01*
G04 APERTURE LIST*
%ADD10C,0.100000*%
%ADD11C,0.200000*%
G04 APERTURE END LIST*
D10*
X13850000Y-9300000D02*
X16550000Y-9300000D01*
X16550000Y-9300000D02*
X16550000Y-11500000D01*
X16550000Y-11500000D02*
X13850000Y-11500000D01*
X13850000Y-11500000D02*
X13850000Y-9300000D01*
D11*
X14092619Y-11798476D02*
X14092619Y-11598476D01*
X14092619Y-11598476D02*
X14140238Y-11598476D01*
X14140238Y-11598476D02*
X14168809Y-11608000D01*
X14168809Y-11608000D02*
X14187857Y-11627048D01*
X14187857Y-11627048D02*
X14197381Y-11646095D01*
X14197381Y-11646095D02*
X14206905Y-11684190D01*
X14206905Y-11684190D02*
X14206905Y-11712762D01*
X14206905Y-11712762D02*
X14197381Y-11750857D01*
X14197381Y-11750857D02*
X14187857Y-11769905D01*
X14187857Y-11769905D02*
X14168809Y-11788952D01*
X14168809Y-11788952D02*
X14140238Y-11798476D01*
X14140238Y-11798476D02*
X14092619Y-11798476D01*
X14292619Y-11798476D02*
X14292619Y-11665143D01*
X14292619Y-11703238D02*
X14302143Y-11684190D01*
X14302143Y-11684190D02*
X14311667Y-11674667D01*
X14311667Y-11674667D02*
X14330714Y-11665143D01*
X14330714Y-11665143D02*
X14349762Y-11665143D01*
X14416428Y-11798476D02*
X14416428Y-11665143D01*
X14416428Y-11598476D02*
X14406905Y-11608000D01*
X14406905Y-11608000D02*
X14416428Y-11617524D01*
X14416428Y-11617524D02*
X14425952Y-11608000D01*
X14425952Y-11608000D02*
X14416428Y-11598476D01*
X14416428Y-11598476D02*
X14416428Y-11617524D01*
X14540238Y-11798476D02*
X14521190Y-11788952D01*
X14521190Y-11788952D02*
X14511667Y-11769905D01*
X14511667Y-11769905D02*
X14511667Y-11598476D01*
X14645000Y-11798476D02*
X14625952Y-11788952D01*
X14625952Y-11788952D02*
X14616428Y-11769905D01*
X14616428Y-11769905D02*
X14616428Y-11598476D01*
X14841190Y-11798476D02*
X14841190Y-11598476D01*
X14841190Y-11598476D02*
X14907857Y-11741333D01*
X14907857Y-11741333D02*
X14974524Y-11598476D01*
X14974524Y-11598476D02*
X14974524Y-11798476D01*
X15155476Y-11798476D02*
X15155476Y-11693714D01*
X15155476Y-11693714D02*
X15145952Y-11674667D01*
X15145952Y-11674667D02*
X15126905Y-11665143D01*
X15126905Y-11665143D02*
X15088809Y-11665143D01*
X15088809Y-11665143D02*
X15069762Y-11674667D01*
X15155476Y-11788952D02*
X15136428Y-11798476D01*
X15136428Y-11798476D02*
X15088809Y-11798476D01*
X15088809Y-11798476D02*
X15069762Y-11788952D01*
X15069762Y-11788952D02*
X15060238Y-11769905D01*
X15060238Y-11769905D02*
X15060238Y-11750857D01*
X15060238Y-11750857D02*
X15069762Y-11731809D01*
X15069762Y-11731809D02*
X15088809Y-11722286D01*
X15088809Y-11722286D02*
X15136428Y-11722286D01*
X15136428Y-11722286D02*
X15155476Y-11712762D01*
X15250714Y-11665143D02*
X15250714Y-11865143D01*
X15250714Y-11674667D02*
X15269762Y-11665143D01*
X15269762Y-11665143D02*
X15307857Y-11665143D01*
X15307857Y-11665143D02*
X15326905Y-11674667D01*
X15326905Y-11674667D02*
X15336428Y-11684190D01*
X15336428Y-11684190D02*
X15345952Y-11703238D01*
X15345952Y-11703238D02*
X15345952Y-11760381D01*
X15345952Y-11760381D02*
X15336428Y-11779428D01*
X15336428Y-11779428D02*
X15326905Y-11788952D01*
X15326905Y-11788952D02*
X15307857Y-11798476D01*
X15307857Y-11798476D02*
X15269762Y-11798476D01*
X15269762Y-11798476D02*
X15250714Y-11788952D01*
X15431667Y-11779428D02*
X15441190Y-11788952D01*
X15441190Y-11788952D02*
X15431667Y-11798476D01*
X15431667Y-11798476D02*
X15422143Y-11788952D01*
X15422143Y-11788952D02*
X15431667Y-11779428D01*
X15431667Y-11779428D02*
X15431667Y-11798476D01*
X15431667Y-11674667D02*
X15441190Y-11684190D01*
X15441190Y-11684190D02*
X15431667Y-11693714D01*
X15431667Y-11693714D02*
X15422143Y-11684190D01*
X15422143Y-11684190D02*
X15431667Y-11674667D01*
X15431667Y-11674667D02*
X15431667Y-11693714D01*
M02*
